# xmcd
#
# Track frame offsets:
#	150
#	11401
#	28175
#	42883
#	59009
#	76741
#	92771
#	109738
#	123909
#	131194
#	145321
#	160230
#	178883
#
# Disc length: 2611 seconds
#
# Revision: 1
# Processed by: cddbd v1.5.2PL0 Copyright (c) Steve Scherf et al.
# Submitted via: audiograbber 1.83.01
#
DISCID=b00a310d
DTITLE=The Harpoonist and The Axe Murderer - Checkered Past
DYEAR=2011
DGENRE=Blues
TTITLE0=Shake It
TTITLE1=Wake Up
TTITLE2=Roll With The Punches
TTITLE3=Get Out
TTITLE4=The Sky Is Falling
TTITLE5=Are You Listening Lord?
TTITLE6=Can't Judge A Book
TTITLE7=Nothing To Lose
TTITLE8=Be My Woman
TTITLE9=Mellow Down Easy
TTITLE10=Too Late Virginia
TTITLE11=Chevrolet
TTITLE12=Burning Bridges
EXTD=
EXTT0=
EXTT1=
EXTT2=
EXTT3=
EXTT4=
EXTT5=
EXTT6=
EXTT7=
EXTT8=
EXTT9=
EXTT10=
EXTT11=
EXTT12=
PLAYORDER=
